<svg width="167" height="207" fill="none" xmlns="http://www.w3.org/2000/svg"><path d="M67.933 123.268l-.588-1.764h-3.906l-.588 1.764h-2.086l3.43-9.8h2.394l3.444 9.8h-2.1zm-3.878-3.57h2.688l-1.344-4.004-1.344 4.004zm11.96-6.23h1.806v9.8h-1.806v-.826c-.532.681-1.288 1.022-2.268 1.022-.943 0-1.75-.355-2.422-1.064-.663-.719-.994-1.596-.994-2.632s.331-1.909.994-2.618c.672-.719 1.48-1.078 2.422-1.078.98 0 1.736.34 2.268 1.022v-3.626zm-3.332 7.728c.373.364.84.546 1.4.546.56 0 1.022-.182 1.386-.546.364-.374.546-.85.546-1.428 0-.579-.182-1.05-.546-1.414-.364-.374-.826-.56-1.386-.56-.56 0-1.027.186-1.4.56-.364.364-.546.835-.546 1.414 0 .578.182 1.054.546 1.428zm12.754 1.204c-.72.709-1.596 1.064-2.632 1.064s-1.914-.355-2.632-1.064c-.71-.719-1.064-1.596-1.064-2.632s.354-1.909 1.064-2.618c.718-.719 1.596-1.078 2.632-1.078s1.913.359 2.632 1.078c.718.709 1.078 1.582 1.078 2.618 0 1.036-.36 1.913-1.078 2.632zm-3.99-1.246c.364.364.816.546 1.358.546.54 0 .994-.182 1.358-.546.364-.364.546-.826.546-1.386 0-.56-.182-1.022-.546-1.386-.364-.364-.817-.546-1.358-.546-.542 0-.994.182-1.358.546-.355.364-.532.826-.532 1.386 0 .56.177 1.022.532 1.386zm10.412-5.082c.943 0 1.745.359 2.408 1.078.672.709 1.008 1.582 1.008 2.618 0 1.036-.336 1.913-1.008 2.632-.663.709-1.465 1.064-2.408 1.064-.98 0-1.736-.341-2.268-1.022v.826h-1.806v-9.8h1.806v3.626c.532-.682 1.288-1.022 2.268-1.022zm-1.722 5.124c.364.364.826.546 1.386.546.56 0 1.022-.182 1.386-.546.373-.374.56-.85.56-1.428 0-.579-.187-1.05-.56-1.414-.364-.374-.826-.56-1.386-.56-.56 0-1.022.186-1.386.56-.364.364-.546.835-.546 1.414 0 .578.182 1.054.546 1.428zm7.938-.686c.242.877.9 1.316 1.974 1.316.69 0 1.213-.234 1.568-.7l1.456.84c-.691.998-1.708 1.498-3.052 1.498-1.158 0-2.086-.35-2.786-1.05-.7-.7-1.05-1.582-1.05-2.646 0-1.055.345-1.932 1.036-2.632.69-.71 1.577-1.064 2.66-1.064 1.026 0 1.871.354 2.534 1.064.672.709 1.008 1.586 1.008 2.632 0 .233-.024.48-.07.742h-5.278zm-.028-1.4h3.57c-.103-.476-.318-.831-.644-1.064a1.794 1.794 0 00-1.092-.35c-.486 0-.887.126-1.204.378-.318.242-.528.588-.63 1.036zm-46.021 21.158l-.589-1.764h-3.905l-.588 1.764h-2.087l3.43-9.8h2.395l3.444 9.8h-2.1zm-3.879-3.57h2.689l-1.344-4.004-1.344 4.004zm10.407-4.69c-.99-.075-1.484.322-1.484 1.19v.07h1.484v1.736H57.07v5.264h-1.806v-5.264h-1.008v-1.736h1.008v-.07c0-.99.275-1.741.826-2.254.55-.514 1.372-.738 2.464-.672v1.736zm5.05 2.996h-1.581v2.912c0 .242.06.42.181.532.122.112.3.177.532.196.234.009.523.004.869-.014v1.638c-1.242.14-2.12.023-2.633-.35-.504-.374-.755-1.041-.755-2.002v-2.912h-1.218v-1.736h1.218v-1.414l1.806-.546v1.96h1.581v1.736zm2.581 2.506c.243.877.9 1.316 1.974 1.316.69 0 1.213-.234 1.568-.7l1.456.84c-.69.998-1.708 1.498-3.052 1.498-1.157 0-2.086-.35-2.786-1.05-.7-.7-1.05-1.582-1.05-2.646 0-1.055.345-1.932 1.036-2.632.69-.71 1.577-1.064 2.66-1.064 1.027 0 1.871.354 2.534 1.064.672.709 1.008 1.586 1.008 2.632 0 .233-.023.48-.07.742h-5.278zm-.028-1.4h3.57c-.103-.476-.317-.831-.644-1.064a1.79 1.79 0 00-1.092-.35c-.485 0-.887.126-1.204.378-.317.242-.527.588-.63 1.036zm8.443-1.638c.168-.448.443-.784.826-1.008a2.578 2.578 0 011.302-.336v2.016a2.144 2.144 0 00-1.484.336c-.43.289-.644.77-.644 1.442v3.346h-1.806v-7H74.6v1.204zm8.7 3.948h4.13v1.848h-6.062v-9.8h5.992v1.848H83.3v2.086h3.71v1.82H83.3v2.198zm13.052-6.552c-.99-.075-1.484.322-1.484 1.19v.21h1.484v1.736h-1.484v5.264h-1.806v-5.264H90.99v5.264h-1.806v-5.264h-1.008v-1.736h1.008v-.07c0-.99.275-1.741.826-2.254.55-.514 1.372-.738 2.464-.672v1.736c-.99-.075-1.484.322-1.484 1.19v.07h2.072v-.21c0-.99.275-1.741.826-2.254.56-.514 1.381-.738 2.464-.672v1.736zm2.099 5.642c.242.877.9 1.316 1.974 1.316.69 0 1.213-.234 1.568-.7l1.456.84c-.691.998-1.708 1.498-3.052 1.498-1.158 0-2.086-.35-2.786-1.05-.7-.7-1.05-1.582-1.05-2.646 0-1.055.345-1.932 1.036-2.632.69-.71 1.577-1.064 2.66-1.064 1.026 0 1.871.354 2.534 1.064.672.709 1.008 1.586 1.008 2.632 0 .233-.024.48-.07.742h-5.278zm-.028-1.4h3.57c-.103-.476-.318-.831-.644-1.064a1.794 1.794 0 00-1.092-.35c-.486 0-.887.126-1.204.378-.318.242-.528.588-.63 1.036zm9.914 4.354c-1.055 0-1.937-.355-2.646-1.064-.7-.71-1.05-1.587-1.05-2.632 0-1.046.35-1.923 1.05-2.632.709-.71 1.591-1.064 2.646-1.064.681 0 1.302.163 1.862.49.56.326.984.765 1.274 1.316l-1.554.91a1.572 1.572 0 00-.644-.686 1.816 1.816 0 00-.952-.252c-.542 0-.99.182-1.344.546-.355.354-.532.812-.532 1.372 0 .55.177 1.008.532 1.372.354.354.802.532 1.344.532.364 0 .686-.08.966-.238.289-.168.504-.397.644-.686l1.568.896c-.308.55-.742.994-1.302 1.33-.56.326-1.181.49-1.862.49zm8.123-5.46h-1.582v2.912c0 .242.061.42.182.532.121.112.299.177.532.196.233.009.523.004.868-.014v1.638c-1.241.14-2.119.023-2.632-.35-.504-.374-.756-1.041-.756-2.002v-2.912h-1.218v-1.736h1.218v-1.414l1.806-.546v1.96h1.582v1.736zm2.789.252c0 .186.121.34.364.462.252.112.555.214.91.308a7.78 7.78 0 011.064.336c.355.13.653.354.896.672.252.317.378.714.378 1.19 0 .718-.271 1.274-.812 1.666-.532.382-1.199.574-2.002.574-1.437 0-2.417-.556-2.94-1.666l1.568-.882c.205.606.663.91 1.372.91.644 0 .966-.201.966-.602 0-.187-.126-.336-.378-.448a4.623 4.623 0 00-.896-.322 9.578 9.578 0 01-1.064-.35 2.267 2.267 0 01-.91-.658c-.243-.308-.364-.691-.364-1.148 0-.691.252-1.232.756-1.624.513-.402 1.148-.602 1.904-.602.569 0 1.087.13 1.554.392.467.252.835.616 1.106 1.092l-1.54.84c-.224-.476-.597-.714-1.12-.714a1.06 1.06 0 00-.588.154.483.483 0 00-.224.42z" fill="#828282"/><path d="M43.07 4.453h81.761v81.005h-81.76V4.453z" fill="url(#paint0_radial_167_584)"/><path d="M43.07 4.454h81.761v81.005h-81.76V4.454zm-3.715 84.788h89.209V.67h-89.21v88.572zm63.111-45.878c1.893 0 2.572 0 2.751-.072 0-.273.071-.455.071-.637 0-2.038-.964-5.821-4.823-5.821-3.572 0-5.09 3.183-5.466 6.549h7.467v-.019zm-7.538 5.185c.071 5.112 2.447 8.55 8.11 8.55 2.197 0 4.09-.31 6.055-1.165.268-.109.447-.072.447.273v4.73c0 .382-.107.564-.375.764-1.965.982-4.43 1.437-7.467 1.437-9.807 0-13.487-7.386-13.487-15.59 0-8.931 4.537-16.244 12.522-16.244 8.11 0 10.933 6.93 10.933 12.57 0 1.819-.108 3.292-.304 4.02-.072.31-.179.418-.482.491-.751.11-2.93.273-6.199.273h-9.736v-.11h-.017zm-19.936-3.857c-1.036-4.202-3.573-13.352-4.502-17.79h-.07c-.787 4.42-2.823 11.915-4.342 17.79h8.914zm-10.432 6.13l-2.93 11.316c-.071.309-.178.418-.553.418h-5.484c-.376 0-.447-.11-.376-.564L65.775 24.41c.178-.673.303-1.218.375-3.11 0-.273.107-.382.303-.382h7.807c.268 0 .375.072.446.382l11.808 40.766c.071.31 0 .491-.304.491h-6.127c-.303 0-.482-.11-.554-.382l-3.054-11.351H64.56z" fill="#D8A1FF"/><path d="M12.214 183.86c.3-.921 1.602-.921 1.902 0l1.75 5.374a1 1 0 00.952.69h5.66c.97 0 1.372 1.241.587 1.81l-4.575 3.315a1 1 0 00-.364 1.119l1.749 5.367c.3.921-.753 1.688-1.538 1.119l-4.585-3.322a.999.999 0 00-1.174 0l-4.585 3.322c-.785.569-1.838-.198-1.538-1.119l1.749-5.367a1 1 0 00-.364-1.119l-4.575-3.315c-.785-.569-.383-1.81.587-1.81h5.66a1 1 0 00.951-.69l1.751-5.374zm35.098 0c.3-.921 1.601-.921 1.901 0l1.751 5.374a1 1 0 00.951.69h5.66c.97 0 1.373 1.241.588 1.81l-4.575 3.315a1 1 0 00-.364 1.119l1.748 5.367c.3.921-.753 1.688-1.537 1.119l-4.586-3.322a.999.999 0 00-1.173 0l-4.586 3.322c-.784.569-1.837-.198-1.537-1.119l1.748-5.367a1 1 0 00-.364-1.119l-4.575-3.315c-.785-.569-.382-1.81.587-1.81h5.66a1 1 0 00.951-.69l1.752-5.374zm35.097 0c.3-.921 1.601-.921 1.901 0l1.751 5.374a1 1 0 00.951.69h5.661c.97 0 1.372 1.241.587 1.81l-4.575 3.315a.999.999 0 00-.364 1.119l1.748 5.367c.3.921-.753 1.688-1.537 1.119l-4.586-3.322a.999.999 0 00-1.173 0l-4.586 3.322c-.784.569-1.837-.198-1.537-1.119l1.748-5.367a1 1 0 00-.364-1.119l-4.575-3.315c-.785-.569-.382-1.81.587-1.81h5.66a1 1 0 00.952-.69l1.75-5.374zm35.097 0c.3-.921 1.602-.921 1.902 0l1.751 5.374a1 1 0 00.95.69h5.661c.97 0 1.372 1.241.587 1.81l-4.575 3.315a1 1 0 00-.364 1.119l1.749 5.367c.3.921-.754 1.688-1.538 1.119l-4.586-3.322a.998.998 0 00-1.173 0l-4.586 3.322c-.784.569-1.837-.198-1.537-1.119l1.749-5.367a1 1 0 00-.365-1.119l-4.574-3.315c-.785-.569-.383-1.81.586-1.81h5.661a1 1 0 00.951-.69l1.751-5.374z" fill="#070707"/><path d="M152.603 183.86c.3-.921 1.602-.921 1.901 0l1.752 5.374c.134.412.517.69.95.69h5.661c.97 0 1.372 1.241.587 1.81l-4.575 3.315a.999.999 0 00-.364 1.119l1.748 5.367c.3.921-.753 1.688-1.537 1.119l-4.586-3.322a.998.998 0 00-1.173 0l-4.586 3.322c-.784.569-1.837-.198-1.537-1.119l1.748-5.367a.997.997 0 00-.364-1.119l-4.575-3.315c-.785-.569-.382-1.81.587-1.81h5.661a1 1 0 00.951-.69l1.751-5.374z" fill="#E5E5E5"/><defs><radialGradient id="paint0_radial_167_584" cx="0" cy="0" r="1" gradientUnits="userSpaceOnUse" gradientTransform="matrix(62.1407 0 0 61.2673 70.023 22.614)"><stop stop-color="#442F55" stop-opacity=".98"/><stop offset="1" stop-color="#12002C"/></radialGradient></defs></svg>