<svg width="168" height="206" fill="none" xmlns="http://www.w3.org/2000/svg"><path d="M72.79 116.29h-3.92v2.324h3.808v1.848H68.87v3.78h-1.932v-9.8h5.852v1.848zm2.22.112a1.096 1.096 0 01-1.107-1.106c0-.298.108-.56.322-.784.224-.224.486-.336.784-.336.308 0 .57.112.784.336.224.224.336.486.336.784 0 .299-.112.56-.336.784a1.066 1.066 0 01-.784.322zm-.897 7.84v-7h1.806v7h-1.806zm8.821-7h1.764v6.664c0 1.083-.359 1.909-1.078 2.478-.709.57-1.568.854-2.576.854-.756 0-1.423-.144-2.002-.434a3.04 3.04 0 01-1.316-1.274l1.54-.882c.355.654.966.98 1.834.98.57 0 1.018-.149 1.344-.448.327-.298.49-.723.49-1.274v-.756c-.532.71-1.278 1.064-2.24 1.064-.989 0-1.82-.345-2.492-1.036-.662-.7-.994-1.549-.994-2.548 0-.989.336-1.834 1.008-2.534.672-.7 1.498-1.05 2.478-1.05.962 0 1.708.355 2.24 1.064v-.868zm-3.374 4.774c.374.355.845.532 1.414.532.57 0 1.036-.177 1.4-.532.374-.364.56-.826.56-1.386 0-.55-.186-1.003-.56-1.358-.364-.364-.83-.546-1.4-.546-.569 0-1.04.182-1.414.546-.364.355-.546.808-.546 1.358 0 .56.182 1.022.546 1.386zm14.518-4.97c.803 0 1.442.262 1.918.784.485.523.728 1.223.728 2.1v4.312h-1.806v-4.186c0-.42-.103-.746-.308-.98-.205-.233-.495-.35-.868-.35-.41 0-.733.136-.966.406-.224.271-.336.663-.336 1.176v3.934h-1.806v-4.186c0-.42-.103-.746-.308-.98-.205-.233-.495-.35-.868-.35-.401 0-.723.136-.966.406-.233.271-.35.663-.35 1.176v3.934h-1.806v-7h1.806v.742c.42-.625 1.069-.938 1.946-.938.859 0 1.493.336 1.904 1.008.467-.672 1.162-1.008 2.086-1.008zm9.5.196h1.806v7h-1.806v-.826c-.541.682-1.302 1.022-2.282 1.022-.933 0-1.736-.354-2.408-1.064-.663-.718-.994-1.596-.994-2.632s.331-1.908.994-2.618c.672-.718 1.475-1.078 2.408-1.078.98 0 1.741.341 2.282 1.022v-.826zm-3.332 4.928c.364.364.826.546 1.386.546.56 0 1.022-.182 1.386-.546.373-.373.56-.849.56-1.428 0-.578-.187-1.05-.56-1.414-.364-.373-.826-.56-1.386-.56-.56 0-1.022.187-1.386.56-.364.364-.546.836-.546 1.414 0 .579.182 1.055.546 1.428z" fill="#828282"/><g clip-path="url(#clip0_167_595)"><path d="M72.051 89.661c8.039 0 14.559-6.64 14.559-14.826V60.01H72.051c-8.038 0-14.558 6.64-14.558 14.825 0 8.186 6.52 14.826 14.558 14.826z" fill="#0ACF83"/><path d="M57.493 45.166c0-8.186 6.52-14.826 14.558-14.826H86.61v29.67H72.051c-8.038-.019-14.558-6.658-14.558-14.844z" fill="#A259FF"/><path d="M57.493 15.496C57.493 7.31 64.013.67 72.05.67h14.56v29.67H72.051c-8.038 0-14.558-6.658-14.558-14.844z" fill="#F24E1E"/><path d="M86.628.67h14.559c8.038 0 14.558 6.64 14.558 14.826s-6.52 14.825-14.558 14.825h-14.56V.67z" fill="#FF7262"/><path d="M115.745 45.166c0 8.186-6.52 14.825-14.558 14.825-8.039 0-14.56-6.64-14.56-14.825 0-8.186 6.521-14.826 14.56-14.826 8.038 0 14.558 6.64 14.558 14.826z" fill="#1ABCFE"/></g><path d="M12.925 182.86c.3-.921 1.602-.921 1.902 0l1.75 5.374a1 1 0 00.952.69h5.66c.97 0 1.372 1.241.587 1.81l-4.575 3.315a1 1 0 00-.364 1.119l1.749 5.367c.3.921-.753 1.688-1.538 1.119l-4.585-3.322a.999.999 0 00-1.174 0l-4.585 3.322c-.785.569-1.838-.198-1.538-1.119l1.749-5.367a1 1 0 00-.364-1.119l-4.575-3.315c-.785-.569-.383-1.81.586-1.81h5.661a1 1 0 00.951-.69l1.751-5.374zm35.097 0c.3-.921 1.602-.921 1.902 0l1.75 5.374a1 1 0 00.952.69h5.66c.97 0 1.372 1.241.587 1.81l-4.575 3.315a.999.999 0 00-.364 1.119l1.749 5.367c.3.921-.754 1.688-1.538 1.119l-4.585-3.322a.999.999 0 00-1.174 0l-4.585 3.322c-.785.569-1.838-.198-1.538-1.119l1.749-5.367a.999.999 0 00-.364-1.119l-4.575-3.315c-.785-.569-.383-1.81.586-1.81h5.661a1 1 0 00.951-.69l1.751-5.374zm35.098 0c.3-.921 1.601-.921 1.9 0l1.752 5.374a1 1 0 00.95.69h5.662c.969 0 1.371 1.241.586 1.81l-4.575 3.315a1 1 0 00-.364 1.119l1.749 5.367c.3.921-.754 1.688-1.538 1.119l-4.585-3.322a.999.999 0 00-1.174 0l-4.585 3.322c-.784.569-1.838-.198-1.538-1.119l1.749-5.367a.999.999 0 00-.364-1.119l-4.575-3.315c-.785-.569-.383-1.81.587-1.81h5.66a1 1 0 00.951-.69l1.751-5.374zm35.096 0c.3-.921 1.602-.921 1.902 0l1.751 5.374a1 1 0 00.951.69h5.661c.969 0 1.371 1.241.586 1.81l-4.575 3.315a1 1 0 00-.364 1.119l1.749 5.367c.3.921-.753 1.688-1.538 1.119l-4.585-3.322a1 1 0 00-1.174 0l-4.585 3.322c-.784.569-1.838-.198-1.538-1.119l1.749-5.367a1 1 0 00-.364-1.119l-4.575-3.315c-.785-.569-.383-1.81.587-1.81h5.66a1 1 0 00.951-.69l1.751-5.374z" fill="#070707"/><path d="M153.314 182.86c.299-.921 1.601-.921 1.901 0l1.751 5.374a1 1 0 00.951.69h5.661c.969 0 1.372 1.241.587 1.81l-4.575 3.315a.997.997 0 00-.364 1.119l1.748 5.367c.3.921-.753 1.688-1.537 1.119l-4.586-3.322a.998.998 0 00-1.173 0l-4.586 3.322c-.784.569-1.837-.198-1.537-1.119l1.748-5.367a.997.997 0 00-.364-1.119l-4.575-3.315c-.785-.569-.382-1.81.587-1.81h5.661a.998.998 0 00.95-.69l1.752-5.374z" fill="#E5E5E5"/><defs><clipPath id="clip0_167_595"><path fill="#fff" transform="translate(57.493 .67)" d="M0 0h58.252v88.991H0z"/></clipPath></defs></svg>