<svg width="167" height="207" fill="none" xmlns="http://www.w3.org/2000/svg"><path d="M67.866 123.268l-.588-1.764h-3.906l-.588 1.764h-2.086l3.43-9.8h2.394l3.444 9.8h-2.1zm-3.878-3.57h2.688l-1.344-4.004-1.344 4.004zm11.96-6.23h1.807v9.8h-1.806v-.826c-.532.681-1.288 1.022-2.268 1.022-.943 0-1.75-.355-2.422-1.064-.663-.719-.994-1.596-.994-2.632s.33-1.909.994-2.618c.672-.719 1.479-1.078 2.422-1.078.98 0 1.736.34 2.268 1.022v-3.626zm-3.331 7.728c.373.364.84.546 1.4.546.56 0 1.022-.182 1.386-.546.364-.374.546-.85.546-1.428 0-.579-.182-1.05-.546-1.414-.364-.374-.826-.56-1.386-.56-.56 0-1.027.186-1.4.56-.364.364-.546.835-.546 1.414 0 .578.182 1.054.546 1.428zM85.37 122.4c-.718.709-1.596 1.064-2.632 1.064s-1.913-.355-2.632-1.064c-.71-.719-1.064-1.596-1.064-2.632s.355-1.909 1.064-2.618c.719-.719 1.596-1.078 2.632-1.078s1.914.359 2.632 1.078c.719.709 1.078 1.582 1.078 2.618 0 1.036-.36 1.913-1.078 2.632zm-3.99-1.246c.364.364.817.546 1.358.546.542 0 .994-.182 1.358-.546.364-.364.546-.826.546-1.386 0-.56-.182-1.022-.546-1.386-.364-.364-.816-.546-1.358-.546-.541 0-.994.182-1.358.546-.354.364-.532.826-.532 1.386 0 .56.178 1.022.532 1.386zm10.413-5.082c.942 0 1.745.359 2.408 1.078.672.709 1.008 1.582 1.008 2.618 0 1.036-.336 1.913-1.008 2.632-.663.709-1.466 1.064-2.408 1.064-.98 0-1.736-.341-2.268-1.022v.826h-1.806v-9.8h1.806v3.626c.532-.682 1.288-1.022 2.268-1.022zm-1.722 5.124c.364.364.826.546 1.386.546.56 0 1.022-.182 1.386-.546.373-.374.56-.85.56-1.428 0-.579-.187-1.05-.56-1.414-.364-.374-.826-.56-1.386-.56-.56 0-1.022.186-1.386.56-.364.364-.546.835-.546 1.414 0 .578.182 1.054.546 1.428zm7.937-.686c.243.877.901 1.316 1.974 1.316.691 0 1.214-.234 1.568-.7l1.456.84c-.69.998-1.708 1.498-3.052 1.498-1.157 0-2.086-.35-2.786-1.05-.7-.7-1.05-1.582-1.05-2.646 0-1.055.346-1.932 1.036-2.632.691-.71 1.578-1.064 2.66-1.064 1.027 0 1.872.354 2.534 1.064.672.709 1.008 1.586 1.008 2.632 0 .233-.023.48-.07.742h-5.278zm-.028-1.4h3.57c-.102-.476-.317-.831-.644-1.064a1.79 1.79 0 00-1.092-.35c-.485 0-.886.126-1.204.378-.317.242-.527.588-.63 1.036zM53.8 130.468h1.933v9.8H53.8v-9.8zm3.663 9.8v-10.22h1.806v10.22h-1.806zm3.459 0v-10.22h1.806v10.22h-1.806zm8.079-7h1.806v7H69v-.784c-.439.653-1.134.98-2.086.98-.766 0-1.4-.257-1.904-.77-.495-.514-.742-1.223-.742-2.128v-4.298h1.806v4.074c0 .466.126.826.378 1.078.252.242.588.364 1.008.364.466 0 .84-.145 1.12-.434.28-.29.42-.724.42-1.302v-3.78zm5.071 1.988c0 .186.122.34.364.462.252.112.556.214.91.308.355.084.71.196 1.064.336.355.13.654.354.896.672.252.317.378.714.378 1.19 0 .718-.27 1.274-.812 1.666-.532.382-1.2.574-2.002.574-1.437 0-2.417-.556-2.94-1.666l1.568-.882c.206.606.663.91 1.372.91.644 0 .966-.201.966-.602 0-.187-.126-.336-.378-.448a4.62 4.62 0 00-.896-.322 9.585 9.585 0 01-1.064-.35 2.27 2.27 0 01-.91-.658c-.242-.308-.364-.691-.364-1.148 0-.691.252-1.232.756-1.624.514-.402 1.148-.602 1.904-.602.57 0 1.088.13 1.554.392a2.76 2.76 0 011.106 1.092l-1.54.84c-.224-.476-.597-.714-1.12-.714-.233 0-.43.051-.588.154a.482.482 0 00-.224.42zm8.573-.252h-1.582v2.912c0 .242.06.42.182.532.12.112.298.177.532.196.233.009.522.004.868-.014v1.638c-1.242.14-2.12.023-2.632-.35-.504-.374-.756-1.041-.756-2.002v-2.912h-1.218v-1.736h1.218v-1.414l1.806-.546v1.96h1.582v1.736zm3.188-.532c.168-.448.444-.784.826-1.008a2.578 2.578 0 011.302-.336v2.016a2.144 2.144 0 00-1.484.336c-.429.289-.644.77-.644 1.442v3.346h-1.806v-7h1.806v1.204zm8.245-1.204h1.806v7h-1.806v-.826c-.541.681-1.302 1.022-2.282 1.022-.934 0-1.736-.355-2.408-1.064-.663-.719-.994-1.596-.994-2.632s.331-1.909.994-2.618c.672-.719 1.474-1.078 2.408-1.078.98 0 1.74.34 2.282 1.022v-.826zm-3.332 4.928c.364.364.826.546 1.386.546.56 0 1.022-.182 1.386-.546.373-.374.56-.85.56-1.428 0-.579-.187-1.05-.56-1.414-.364-.374-.826-.56-1.386-.56-.56 0-1.022.186-1.386.56-.364.364-.546.835-.546 1.414 0 .578.182 1.054.546 1.428zm10.779-3.192h-1.582v2.912c0 .242.061.42.182.532.122.112.299.177.532.196.234.009.523.004.868-.014v1.638c-1.241.14-2.118.023-2.632-.35-.504-.374-.755-1.041-.755-2.002v-2.912h-1.219v-1.736h1.219v-1.414l1.805-.546v1.96h1.582v1.736zm7.019 4.396c-.719.709-1.596 1.064-2.632 1.064s-1.913-.355-2.632-1.064c-.709-.719-1.064-1.596-1.064-2.632s.355-1.909 1.064-2.618c.719-.719 1.596-1.078 2.632-1.078s1.913.359 2.632 1.078c.719.709 1.078 1.582 1.078 2.618 0 1.036-.359 1.913-1.078 2.632zm-3.99-1.246c.364.364.817.546 1.358.546.541 0 .994-.182 1.358-.546.364-.364.546-.826.546-1.386 0-.56-.182-1.022-.546-1.386-.364-.364-.817-.546-1.358-.546-.541 0-.994.182-1.358.546-.355.364-.532.826-.532 1.386 0 .56.177 1.022.532 1.386zm8.145-3.682c.168-.448.443-.784.826-1.008a2.578 2.578 0 011.302-.336v2.016a2.143 2.143 0 00-1.484.336c-.43.289-.644.77-.644 1.442v3.346h-1.806v-7h1.806v1.204z" fill="#828282"/><path d="M43.003 4.453h81.761v81.005h-81.76V4.453z" fill="url(#paint0_radial_167_571)"/><path d="M43.003 4.454h81.761v81.005h-81.76V4.454zm-3.715 84.788h89.209V.67h-89.21v88.572zm58.43-56.992c0-.31.108-.455.447-.455h5.842c.303 0 .446.109.446.455v29.87c0 .309-.071.454-.446.454h-5.77c-.375 0-.483-.182-.483-.491V32.25h-.035zm-.41-8.605c0-2.42 1.68-3.856 3.787-3.856 2.269 0 3.787 1.546 3.787 3.856 0 2.492-1.59 3.857-3.858 3.857-2.144.018-3.716-1.346-3.716-3.857zm-16.72 21.047c-1.036-4.202-3.501-13.352-4.43-17.79h-.072c-.786 4.42-2.75 11.915-4.305 17.79h8.807zm-10.325 6.13l-2.93 11.352c-.071.31-.178.382-.553.382h-5.467c-.375 0-.446-.11-.375-.564l10.557-37.62c.18-.672.304-1.29.376-3.146 0-.273.107-.382.303-.382h7.806c.269 0 .376.073.447.382l11.826 40.839c.071.31 0 .491-.304.491h-6.163c-.304 0-.482-.073-.554-.346l-3.054-11.387H70.263z" fill="#FF7F18"/><path d="M12.504 183.86c.3-.921 1.601-.921 1.901 0l1.751 5.374a1 1 0 00.951.69h5.661c.97 0 1.372 1.241.587 1.81l-4.575 3.315a1 1 0 00-.364 1.119l1.748 5.367c.3.921-.753 1.688-1.537 1.119l-4.586-3.322a.999.999 0 00-1.173 0l-4.586 3.322c-.784.569-1.837-.198-1.537-1.119l1.748-5.367a1 1 0 00-.364-1.119l-4.575-3.315c-.785-.569-.382-1.81.587-1.81h5.66a1 1 0 00.952-.69l1.75-5.374zm35.096 0c.3-.921 1.603-.921 1.902 0l1.752 5.374a1 1 0 00.95.69h5.661c.97 0 1.372 1.241.587 1.81l-4.575 3.315a1 1 0 00-.364 1.119l1.748 5.367c.3.921-.753 1.688-1.537 1.119l-4.586-3.322a.999.999 0 00-1.173 0l-4.586 3.322c-.784.569-1.837-.198-1.537-1.119l1.748-5.367a1 1 0 00-.364-1.119l-4.575-3.315c-.785-.569-.382-1.81.587-1.81H44.9a1 1 0 00.95-.69l1.752-5.374zm35.098 0c.3-.921 1.602-.921 1.902 0l1.75 5.374a1 1 0 00.952.69h5.66c.97 0 1.372 1.241.587 1.81l-4.575 3.315a.999.999 0 00-.364 1.119l1.749 5.367c.3.921-.754 1.688-1.538 1.119l-4.585-3.322a.999.999 0 00-1.174 0l-4.585 3.322c-.785.569-1.838-.198-1.538-1.119l1.749-5.367a1 1 0 00-.364-1.119l-4.575-3.315c-.785-.569-.383-1.81.586-1.81h5.661a1 1 0 00.951-.69l1.751-5.374z" fill="#070707"/><path d="M117.795 183.86c.3-.921 1.602-.921 1.902 0l1.751 5.374a1 1 0 00.951.69h5.661c.969 0 1.371 1.241.586 1.81l-4.575 3.315a1 1 0 00-.364 1.119l1.749 5.367c.3.921-.753 1.688-1.538 1.119l-4.585-3.322a1 1 0 00-1.174 0l-4.585 3.322c-.784.569-1.838-.198-1.538-1.119l1.749-5.367a1 1 0 00-.364-1.119l-4.575-3.315c-.785-.569-.383-1.81.587-1.81h5.66a1 1 0 00.951-.69l1.751-5.374zm35.097 0c.3-.921 1.602-.921 1.902 0l1.751 5.374a1 1 0 00.951.69h5.661c.969 0 1.371 1.241.586 1.81l-4.574 3.315a1 1 0 00-.365 1.119l1.749 5.367c.3.921-.753 1.688-1.538 1.119l-4.585-3.322a1 1 0 00-1.174 0l-4.585 3.322c-.784.569-1.838-.198-1.538-1.119l1.749-5.367a1 1 0 00-.364-1.119l-4.575-3.315c-.785-.569-.383-1.81.587-1.81h5.661a1 1 0 00.95-.69l1.751-5.374z" fill="#E5E5E5"/><defs><radialGradient id="paint0_radial_167_571" cx="0" cy="0" r="1" gradientUnits="userSpaceOnUse" gradientTransform="matrix(62.1406 0 0 61.2673 69.958 22.63)"><stop stop-color="#423325" stop-opacity=".98"/><stop offset="1" stop-color="#1C0A00"/></radialGradient></defs></svg>