<svg width="168" height="207" fill="none" xmlns="http://www.w3.org/2000/svg"><path d="M42.934 4.426H124.6V85.28H42.934V4.426z" fill="url(#paint0_radial_167_556)"/><path d="M42.934 4.426H124.6V85.28H42.934V4.426zM39.221 89.06h89.073V.646H39.221V89.06zm60.067-52.13c-2.928 0-3.927 1.508-3.927 2.762 0 1.363.66 2.307 4.605 4.379 5.819 2.87 7.64 5.632 7.64 9.666 0 6.05-4.534 9.303-10.657 9.303-3.23 0-6.015-.672-7.604-1.617-.268-.11-.303-.31-.303-.6v-5.578c0-.382.178-.49.446-.309a13.66 13.66 0 007.461 2.235c2.928 0 4.159-1.254 4.159-2.944 0-1.362-.856-2.561-4.605-4.542-5.266-2.562-7.462-5.16-7.462-9.52 0-4.87 3.75-8.922 10.247-8.922 3.195 0 5.426.49 6.64 1.054.303.182.375.49.375.763v5.178c0 .31-.179.49-.554.382-1.642-1.054-4.052-1.69-6.461-1.69zM67.37 41.42c.857.073 1.517.073 3 .073 4.337 0 8.424-1.545 8.424-7.559 0-4.797-2.927-7.213-7.872-7.213-1.481 0-2.891.073-3.57.109l.018 14.59zm-6.622-20.06c0-.272.517-.454.82-.454 2.375-.108 5.91-.181 9.569-.181 10.281 0 14.298 5.741 14.298 13.064 0 9.593-6.837 13.718-15.227 13.718-1.41 0-1.892-.073-2.891-.073v14.5c0 .308-.108.454-.447.454h-5.676c-.303 0-.446-.11-.446-.455V21.36z" fill="#31C5F0"/><path d="M69.047 124.266l-.588-1.764h-3.906l-.588 1.764h-2.086l3.43-9.8h2.394l3.444 9.8h-2.1zm-3.878-3.57h2.688l-1.344-4.004-1.344 4.004zm11.96-6.23h1.806v9.8h-1.806v-.826c-.532.681-1.288 1.022-2.268 1.022-.943 0-1.75-.355-2.422-1.064-.663-.719-.994-1.596-.994-2.632s.331-1.909.994-2.618c.672-.719 1.48-1.078 2.422-1.078.98 0 1.736.34 2.268 1.022v-3.626zm-3.332 7.728c.373.364.84.546 1.4.546.56 0 1.022-.182 1.386-.546.364-.374.546-.85.546-1.428 0-.579-.182-1.05-.546-1.414-.364-.374-.826-.56-1.386-.56-.56 0-1.027.186-1.4.56-.364.364-.546.835-.546 1.414 0 .578.182 1.054.546 1.428zm12.754 1.204c-.719.709-1.596 1.064-2.632 1.064s-1.914-.355-2.632-1.064c-.71-.719-1.064-1.596-1.064-2.632s.354-1.909 1.064-2.618c.718-.719 1.596-1.078 2.632-1.078s1.913.359 2.632 1.078c.718.709 1.078 1.582 1.078 2.618 0 1.036-.36 1.913-1.078 2.632zm-3.99-1.246c.364.364.816.546 1.358.546.541 0 .994-.182 1.358-.546.364-.364.546-.826.546-1.386 0-.56-.182-1.022-.546-1.386-.364-.364-.817-.546-1.358-.546-.542 0-.994.182-1.358.546-.355.364-.532.826-.532 1.386 0 .56.177 1.022.532 1.386zm10.412-5.082c.943 0 1.746.359 2.408 1.078.672.709 1.008 1.582 1.008 2.618 0 1.036-.336 1.913-1.008 2.632-.662.709-1.465 1.064-2.408 1.064-.98 0-1.736-.341-2.268-1.022v.826H88.9v-9.8h1.806v3.626c.532-.682 1.288-1.022 2.268-1.022zm-1.722 5.124c.364.364.826.546 1.386.546.56 0 1.022-.182 1.386-.546.374-.374.56-.85.56-1.428 0-.579-.186-1.05-.56-1.414-.364-.374-.826-.56-1.386-.56-.56 0-1.022.186-1.386.56-.364.364-.546.835-.546 1.414 0 .578.182 1.054.546 1.428zm7.938-.686c.243.877.9 1.316 1.974 1.316.69 0 1.213-.234 1.568-.7l1.456.84c-.691.998-1.708 1.498-3.052 1.498-1.157 0-2.086-.35-2.786-1.05-.7-.7-1.05-1.582-1.05-2.646 0-1.055.345-1.932 1.036-2.632.69-.71 1.577-1.064 2.66-1.064 1.026 0 1.871.354 2.534 1.064.672.709 1.008 1.586 1.008 2.632 0 .233-.024.48-.07.742h-5.278zm-.028-1.4h3.57c-.103-.476-.318-.831-.644-1.064a1.794 1.794 0 00-1.092-.35c-.486 0-.887.126-1.204.378-.317.242-.528.588-.63 1.036zM53.31 131.466c.943 0 1.736.317 2.38.952.644.634.966 1.414.966 2.338 0 .924-.322 1.703-.966 2.338-.644.634-1.437.952-2.38.952h-1.722v3.22h-1.932v-9.8h3.654zm0 4.774c.41 0 .751-.14 1.022-.42a1.5 1.5 0 00.406-1.064c0-.43-.135-.784-.406-1.064a1.36 1.36 0 00-1.022-.42h-1.722v2.968h1.722zm8.412-2.17c.765 0 1.395.256 1.89.77.504.513.756 1.222.756 2.128v4.298h-1.806v-4.074c0-.467-.126-.822-.378-1.064-.252-.252-.588-.378-1.008-.378-.467 0-.84.144-1.12.434-.28.289-.42.723-.42 1.302v3.78H57.83v-9.8h1.806v3.584c.438-.654 1.134-.98 2.086-.98zm10.152 6.328c-.719.709-1.596 1.064-2.632 1.064s-1.913-.355-2.632-1.064c-.71-.719-1.064-1.596-1.064-2.632s.354-1.909 1.064-2.618c.719-.719 1.596-1.078 2.632-1.078s1.913.359 2.632 1.078c.719.709 1.078 1.582 1.078 2.618 0 1.036-.36 1.913-1.078 2.632zm-3.99-1.246c.364.364.817.546 1.358.546.541 0 .994-.182 1.358-.546.364-.364.546-.826.546-1.386 0-.56-.182-1.022-.546-1.386-.364-.364-.817-.546-1.358-.546-.541 0-.994.182-1.358.546-.355.364-.532.826-.532 1.386 0 .56.177 1.022.532 1.386zm10.192-3.15h-1.582v2.912c0 .242.06.42.182.532.121.112.299.177.532.196.233.009.523.004.868-.014v1.638c-1.241.14-2.119.023-2.632-.35-.504-.374-.756-1.041-.756-2.002v-2.912H73.47v-1.736h1.218v-1.414l1.806-.546v1.96h1.582v1.736zm7.019 4.396c-.72.709-1.596 1.064-2.632 1.064s-1.914-.355-2.632-1.064c-.71-.719-1.064-1.596-1.064-2.632s.354-1.909 1.064-2.618c.718-.719 1.596-1.078 2.632-1.078s1.913.359 2.632 1.078c.718.709 1.078 1.582 1.078 2.618 0 1.036-.36 1.913-1.078 2.632zm-3.99-1.246c.364.364.816.546 1.358.546.54 0 .994-.182 1.358-.546.364-.364.546-.826.546-1.386 0-.56-.182-1.022-.546-1.386-.364-.364-.817-.546-1.358-.546-.542 0-.994.182-1.358.546-.355.364-.532.826-.532 1.386 0 .56.177 1.022.532 1.386zm7.854-2.898c0 .186.121.34.364.462.252.112.555.214.91.308.354.084.709.196 1.064.336.354.13.653.354.896.672.252.317.378.714.378 1.19 0 .718-.271 1.274-.812 1.666-.532.382-1.2.574-2.002.574-1.438 0-2.418-.556-2.94-1.666l1.568-.882c.205.606.662.91 1.372.91.644 0 .966-.201.966-.602 0-.187-.126-.336-.378-.448a4.625 4.625 0 00-.896-.322 9.571 9.571 0 01-1.064-.35 2.269 2.269 0 01-.91-.658c-.243-.308-.364-.691-.364-1.148 0-.691.252-1.232.756-1.624.513-.402 1.148-.602 1.904-.602.569 0 1.087.13 1.554.392.466.252.835.616 1.106 1.092l-1.54.84c-.224-.476-.598-.714-1.12-.714-.234 0-.43.051-.588.154a.482.482 0 00-.224.42zm8.665-2.184c.766 0 1.395.256 1.89.77.504.513.756 1.222.756 2.128v4.298h-1.806v-4.074c0-.467-.126-.822-.378-1.064-.252-.252-.588-.378-1.008-.378-.466 0-.84.144-1.12.434-.28.289-.42.723-.42 1.302v3.78h-1.806v-9.8h1.806v3.584c.439-.654 1.134-.98 2.086-.98zm10.152 6.328c-.718.709-1.596 1.064-2.632 1.064s-1.913-.355-2.632-1.064c-.709-.719-1.064-1.596-1.064-2.632s.355-1.909 1.064-2.618c.719-.719 1.596-1.078 2.632-1.078s1.914.359 2.632 1.078c.719.709 1.078 1.582 1.078 2.618 0 1.036-.359 1.913-1.078 2.632zm-3.99-1.246c.364.364.817.546 1.358.546.542 0 .994-.182 1.358-.546.364-.364.546-.826.546-1.386 0-.56-.182-1.022-.546-1.386-.364-.364-.816-.546-1.358-.546-.541 0-.994.182-1.358.546-.354.364-.532.826-.532 1.386 0 .56.178 1.022.532 1.386zm10.413-5.082c.942 0 1.745.359 2.408 1.078.672.709 1.008 1.582 1.008 2.618 0 1.036-.336 1.913-1.008 2.632-.663.709-1.466 1.064-2.408 1.064-.98 0-1.736-.341-2.268-1.022v3.626h-1.806v-9.8h1.806v.826c.532-.682 1.288-1.022 2.268-1.022zm-1.722 5.124c.364.364.826.546 1.386.546.56 0 1.022-.182 1.386-.546.373-.374.56-.85.56-1.428 0-.579-.187-1.05-.56-1.414-.364-.374-.826-.56-1.386-.56-.56 0-1.022.186-1.386.56-.364.364-.546.835-.546 1.414 0 .578.182 1.054.546 1.428z" fill="#828282"/><path d="M12.793 183.86c.3-.921 1.602-.921 1.902 0l1.751 5.374a1 1 0 00.95.69h5.662c.969 0 1.371 1.241.586 1.81l-4.575 3.315a1 1 0 00-.364 1.119l1.749 5.367c.3.921-.753 1.688-1.538 1.119l-4.585-3.322a.999.999 0 00-1.174 0l-4.585 3.322c-.784.569-1.838-.198-1.538-1.119l1.749-5.367a1 1 0 00-.364-1.119l-4.575-3.315c-.785-.569-.383-1.81.587-1.81h5.66a1 1 0 00.951-.69l1.751-5.374zm35.097 0c.3-.921 1.602-.921 1.902 0l1.75 5.374a1 1 0 00.952.69h5.66c.97 0 1.372 1.241.587 1.81l-4.575 3.315a1 1 0 00-.364 1.119l1.749 5.367c.3.921-.754 1.688-1.538 1.119l-4.585-3.322a.999.999 0 00-1.174 0l-4.585 3.322c-.784.569-1.838-.198-1.538-1.119l1.749-5.367a.999.999 0 00-.364-1.119l-4.575-3.315c-.785-.569-.383-1.81.587-1.81h5.66a1 1 0 00.951-.69l1.751-5.374zm35.097 0c.3-.921 1.602-.921 1.902 0l1.751 5.374a1 1 0 00.95.69h5.662c.969 0 1.371 1.241.586 1.81l-4.575 3.315a.999.999 0 00-.364 1.119l1.749 5.367c.3.921-.753 1.688-1.537 1.119l-4.586-3.322a.999.999 0 00-1.174 0l-4.585 3.322c-.784.569-1.838-.198-1.538-1.119l1.749-5.367a1 1 0 00-.364-1.119l-4.575-3.315c-.785-.569-.383-1.81.587-1.81h5.66a1 1 0 00.951-.69l1.751-5.374zm35.098 0c.299-.921 1.601-.921 1.901 0l1.751 5.374a1 1 0 00.951.69h5.661c.969 0 1.372 1.241.587 1.81l-4.575 3.315a.997.997 0 00-.364 1.119l1.748 5.367c.3.921-.753 1.688-1.537 1.119l-4.586-3.322a.998.998 0 00-1.173 0l-4.586 3.322c-.784.569-1.837-.198-1.537-1.119l1.748-5.367a.997.997 0 00-.364-1.119l-4.575-3.315c-.785-.569-.382-1.81.587-1.81h5.661a.998.998 0 00.95-.69l1.752-5.374z" fill="#070707"/><path d="M153.182 183.86c.3-.921 1.601-.921 1.901 0l1.751 5.374a1 1 0 00.951.69h5.661c.969 0 1.372 1.241.587 1.81l-4.575 3.315a.997.997 0 00-.364 1.119l1.748 5.367c.3.921-.753 1.688-1.537 1.119l-4.586-3.322a.998.998 0 00-1.173 0l-4.586 3.322c-.784.569-1.837-.198-1.537-1.119l1.748-5.367a.997.997 0 00-.364-1.119l-4.575-3.315c-.785-.569-.382-1.81.587-1.81h5.661a1 1 0 00.951-.69l1.751-5.374z" fill="#E5E5E5"/><defs><radialGradient id="paint0_radial_167_556" cx="0" cy="0" r="1" gradientUnits="userSpaceOnUse" gradientTransform="matrix(62.0565 0 0 61.1565 69.838 22.566)"><stop stop-color="#34364E" stop-opacity=".98"/><stop offset="1" stop-color="#0C0824"/></radialGradient></defs></svg>